<?xml version="1.0" encoding="utf-8"?>
<!-- Generator: Adobe Illustrator 24.0.1, SVG Export Plug-In . SVG Version: 6.00 Build 0)  -->
<svg version="1.1" id="Layer_1" xmlns="http://www.w3.org/2000/svg" xmlns:xlink="http://www.w3.org/1999/xlink" x="0px" y="0px"
	 viewBox="0 0 32 32" style="enable-background:new 0 0 32 32;" xml:space="preserve">
<style type="text/css">
	.st0{fill:#FFFFFF;}
</style>
<title>greensock</title>
<path class="st0" d="M18,31.9c-0.4-0.1-0.8-0.3-1.1-0.5c-0.2-0.2-0.3-0.4-0.3-0.6c0-0.2,0.1-0.6,0.3-0.9c0.1-0.2,0.2-0.4,0.3-0.6
	c0-0.2,0.1-0.4,0.2-0.6l0.1-0.3l0-1.9c0-1.1,0-2,0.1-2.2c0.1-0.4,0.2-0.9,0.3-1.3l0.1-0.3l-0.2-0.1c-0.2-0.1-0.3-0.2-0.8-0.8
	c-0.6-0.7-1.4-1.1-2.5-1.3c-0.4,0-0.7-0.1-1.1-0.1c-1.7-0.1-2.6-0.4-3.5-1.3c-0.6-0.6-1-1.4-1.1-2.4c-0.2-1.5-0.4-2.2-0.8-2.8
	c-0.1-0.2-0.2-0.3-0.3-0.4l-0.2-0.2l-0.3,0.2c-0.2,0.1-0.4,0.3-0.6,0.3c-0.4,0.2-0.8,0.5-1.2,0.8c-0.9,0.7-1.9,1.5-2.5,2.1
	c-0.3,0.3-0.4,0.4-0.4,0.3c-0.4-0.1-0.1-1.7,0.5-2.9c0.8-1.6,2.1-3.1,3.7-4.1c1.3-0.8,3.3-1.9,4.3-2.3c1.7-0.7,3.9-1.5,5.3-1.9
	c0.3-0.1,0.5-0.2,0.6-0.3c0.3-0.2,0.6-0.3,0.9-0.3c0.3,0,0.3,0,0.6-0.2C18.9,5,18.9,5,19.3,5.1l0.2,0.1L19.7,5L20,4.8l0.4,0
	c0.3,0,0.4,0,0.5-0.1C21,4.7,21,4.7,21,4.4c0.1-0.5,0.1-0.8,0-1.1c-0.1-0.4-0.1-2.1,0-2.4c0.1-0.4,0.1-0.4,0.4-0.6
	C21.9,0.1,22.2,0,22.8,0c0.8,0,1.3,0.1,1.6,0.4c0.3,0.3,0.3,0.9,0.2,2.4c-0.1,0.9-0.1,1.1-0.1,1.7c0,0.4,0,0.7,0,0.7
	c0,0.1,0,0.1,0.3,0.1c0.3,0,0.3,0,0.6,0.2C25.8,5.7,26,5.8,26.1,6c0,0,0.1,0,0.1,0c0.2,0,0.3,0,0.4,0.1c0.1,0.1,0.1,0.1,0.3,0.1
	c0.2,0,0.3,0.1,0.5,0.3c0.1,0.1,0.2,0.2,0.3,0.3c0.3,0.1,0.7,0.6,0.8,0.9c0.2,0.5,0.3,1,0.1,1.5c-0.1,0.2-0.1,0.2,0.1,0.4
	c0.2,0.4,0.3,0.9,0.2,1.3l-0.1,0.2l0.2,0.2c0.8,0.8,0.7,2-0.3,3.2c-0.1,0.1-0.2,0.3-0.3,0.4c-0.2,0.5-0.4,0.8-0.7,1.1l-0.3,0.3h-0.3
	c-0.3,0-0.7-0.1-0.9-0.2c-0.1-0.1-0.1-0.1-0.1,0c0.1,0.2,0.2,1.2,0.3,1.7c0.1,0.8,0.1,1.9-0.1,2.4c-0.1,0.4-0.2,0.7-0.4,1
	C26,21.3,26,21.4,26,21.6c0,0.3,0,0.8-0.2,1.1c-0.1,0.4-0.2,0.5-0.2,0.7c0,0.2,0,0.2,0.1,0.2c0.2,0,0.2,0.1,0.2,0.3
	c0,0.1-0.1,0.5-0.2,0.9c-0.2,1.2-0.2,1.3-0.2,2.5c0,1.2,0,1.2,0.3,1.4l0.6,0.4c0.5,0.4,1.1,0.6,1.7,0.9c0.9,0.3,1,0.4,1,0.7
	c0,0.1,0,0.2-0.1,0.3c-0.3,0.3-1,0.4-2.3,0.3c-0.7-0.1-1.4-0.1-2.1-0.1c-1.8,0-2.1-0.1-2.3-0.5c-0.1-0.3-0.1-0.6,0.1-1.2
	c0.1-0.2,0.2-0.5,0.2-0.8c0.1-0.6,0-1.3-0.3-2.1l-0.3-0.7c-0.2-0.7-0.4-2-0.2-2.3c0-0.1,0.1-0.1,0.2-0.1l0.2,0l0.1-0.3
	c0.1-0.2,0.2-0.4,0.5-0.7l0.4-0.4l0-0.2c0-0.2-0.3-1.4-0.4-1.4c0,0-0.1,0.1-0.2,0.3c-0.2,0.3-0.7,0.9-1,1.1
	c-0.1,0.1-0.2,0.2-0.2,0.2c0,0.1-0.1,0.4-0.3,0.6C21,22.9,21,23,21,23.1c0,0.2,0,1-0.1,1.4c-0.1,0.3-0.2,0.6-0.3,0.9
	c-0.4,0.7-0.6,1.4-0.7,1.7c-0.1,0.3-0.1,0.6-0.1,0.9c0,0.4-0.1,0.7-0.1,0.8c0,0.1,0,0.2,0,0.3c0,0.1,0,0.4,0,0.5
	c0,0.3,0,0.4,0.1,0.8c0.1,0.5,0.2,0.9,0.1,1.1c0,0.1-0.1,0.2-0.2,0.2C19.3,31.9,18.4,32,18,31.9L18,31.9z M19.2,31.5
	c0.2-0.1,0.3-0.2,0.3-0.3c0-0.1-0.1-0.2-0.1-0.4c-0.1-0.3-0.3-1.1-0.3-1.3c0-0.1,0-0.1,0.1,0l0.1,0.1v-0.1c0-0.1,0-0.3-0.1-0.4
	c-0.1-0.3-0.1-0.3-0.7-0.3l-0.4,0l-0.2,0.2c-0.1,0.1-0.2,0.2-0.2,0.3c-0.1,0.1-0.1,0.3-0.1,0.4c0,0,0.1,0,0.2,0c0.1,0,0.1,0,0.2,0
	c0,0-0.1,0.1-0.3,0.2c-0.6,0.5-0.8,0.8-0.8,1.1c0,0.4,0.4,0.7,0.9,0.8C18.3,31.5,19,31.6,19.2,31.5L19.2,31.5z M27.7,30.9
	c0.2-0.2,0.1-0.4-0.1-0.6c-0.1-0.1-0.2-0.2-0.4-0.3s-0.3-0.2-0.4-0.3c-0.1-0.1-0.5-0.3-0.8-0.5c-0.2-0.1-0.5-0.3-0.7-0.4l-0.1-0.1
	v-1.4c0-1.4,0-1.4-0.1-1.4c-0.4,0.1-1,0.1-1.7,0.1l-0.8,0l0.1,0.3c0.2,0.6,0.3,1.3,0.3,2.1c0,0.3,0,0.4-0.1,0.7
	c0,0.1-0.1,0.2-0.1,0.3c0,0,0,0.1,0.3,0.1c0.2,0,0.4,0.1,0.5,0.1l0.2,0l0,0.2c0,0.3,0,0.6,0.1,0.6c0,0.1,0.2,0.1,0.9,0.1
	c0.5,0,1.1,0.1,1.6,0.2c0.4,0.1,0.8,0.1,1,0.1C27.6,31,27.6,31,27.7,30.9L27.7,30.9z M19.4,28.4c0,0,0.1-0.3,0.1-0.6
	c0-0.9,0.1-1.1,0.5-2.1c0.4-0.9,0.6-1.7,0.6-2.2l0-0.3l-0.1,0.1c-0.3,0.3-0.1-0.2,0.3-0.6c0.3-0.3,0.4-0.5,0.4-0.8
	c0-0.1,0.1-0.2,0.2-0.3c0.7-0.5,1.2-1.2,1.5-1.9c0.1-0.2,0.3-0.8,0.4-1.4c0.3-1.1,0.4-1.6,0.6-1.8c0.1-0.1,0.1-0.1,0.1,0
	c-0.1,0.3-0.1,0.4-0.2,0.8c0,0.3-0.1,0.8-0.2,1.1c-0.1,0.7-0.2,1.2-0.3,1.5l-0.1,0.2l0.3,0.6c0.3,0.7,0.4,1.1,0.4,1.6l0,0.3l-0.2,0
	c-0.3,0-0.5,0.2-0.7,0.4c-0.2,0.3-0.3,0.5-0.2,0.5c0,0,0.3,0.1,0.6,0.1c0.5,0.1,0.6,0.1,1.2,0c0.3,0,0.5,0,0.8-0.1
	c0.1,0,0.1-0.1,0.2-0.4c0.2-0.7,0.3-0.9,0.2-1.4l0-0.4l0.1-0.1c0.3-0.3,0.5-0.9,0.5-1.6c0.1-0.8-0.1-2.6-0.4-4.1
	c-0.2-0.7-0.2-1.1-0.2-1.5v-0.3l-0.3,0c-0.9,0.1-2,0.1-2.7-0.1c-0.4-0.1-1.3-0.3-1.5-0.4L21,13.3l0,0.2c0,0.1,0,0.2-0.1,0.3
	c0,0.1,0,0.1,0.2,0.3c0.2,0.2,0.3,0.4,0.3,0.5c0,0.1-0.1,0.2-0.3,0.5c-0.2,0.2-0.5,0.5-0.7,0.6L20,16l-0.1,0.5
	c-0.5,1.8-0.6,3.5-0.3,4.7l0.1,0.3l-0.2,0.2c-0.6,0.8-1,1.4-1.1,1.7c0,0.1-0.1,0.3-0.1,0.5c-0.1,0.5-0.2,1.3-0.3,2.1
	c0,0.7-0.1,1.4-0.1,2.1l0,0.2l0.3,0.1c0.1,0,0.4,0.1,0.5,0.1C18.9,28.5,19.3,28.5,19.4,28.4L19.4,28.4z M24.4,25.6
	c0.4,0,0.8-0.1,0.8-0.2c0,0,0.1-0.1,0.1-0.2l0-0.2l-0.3,0.1c-0.3,0.1-0.5,0.1-0.8,0.1c-0.6,0-1.2,0-1.8-0.1c-0.2,0-0.2,0-0.1,0.2
	c0.1,0.2,0.1,0.2,0.6,0.2C23.2,25.6,23.7,25.6,24.4,25.6L24.4,25.6z M24.1,24.7c0.5,0,1.2-0.2,1.3-0.2c0,0,0.1-0.1,0.1-0.2l0-0.3
	l0-0.1l-0.1,0c-0.6,0.1-1,0.2-1.9,0.2c-0.9,0-1,0-1.2-0.1c-0.1,0-0.2-0.1-0.3-0.1c0,0,0,0.3,0,0.5c0,0.1,0,0.1,0.2,0.2
	C22.7,24.7,23.3,24.7,24.1,24.7L24.1,24.7z M14.4,20c1.3-0.4,3.1-1.5,4.5-2.9c0.5-0.5,0.5-0.5,0.6-0.7l0.1-0.3c0,0-0.1-0.1-0.2-0.1
	c-0.3-0.1-0.5-0.2-0.5-0.4c0-0.1-0.1-0.2-0.2-0.3c-0.2-0.3-0.3-0.4-0.3-0.7l0-0.2l-0.3-0.2c-0.2-0.1-0.8-0.4-1.4-0.8
	c-0.5-0.2-0.9-0.5-1.4-0.8c-0.5-0.3-0.9-0.8-1.1-1.3c0-0.1-0.1-0.2-0.1-0.2c0,0-1.2,1.1-1.7,1.7c-1.2,1.3-2.1,2.4-2.6,3.5
	c-0.1,0.3-0.3,0.6-0.3,0.7l-0.1,0.2l0.1,0.3c0.1,0.2,0.2,0.5,0.3,0.7c0.3,0.6,0.7,1,1.4,1.4c0.7,0.3,1.3,0.5,2.3,0.4
	C14,20.1,14.2,20,14.4,20L14.4,20z M3.9,15.4c0.9-0.8,2.1-1.6,3.6-2.5c1-0.6,4.7-2.5,6.4-3.2c0.3-0.1,0.6-0.3,0.6-0.3
	c0,0,0.1-0.2,0.2-0.5c0.4-1.2,0.5-1.4,1.2-1.5c0.1,0,0.1,0,0.1-0.1c0-0.2,0.1-0.5,0.2-0.7c0.1-0.1,0.1-0.1,0-0.1
	c0,0-0.3,0.1-0.5,0.1c-3.2,0.9-6,2.1-8.3,3.7c-2.6,1.6-4,3.6-4.5,5.9l0,0.2L3.2,16C3.4,15.9,3.7,15.6,3.9,15.4L3.9,15.4z M27.5,15.9
	c0.3-0.1,0.7-0.7,0.8-1.2c0-0.2,0.1-0.3,0.2-0.5c0.4-0.4,0.7-1.2,0.7-1.7c0-0.8-0.5-1.1-1.2-0.8c-0.1,0-0.2,0.1-0.2,0.1
	c0,0,0.2-0.2,0.4-0.4c0.3-0.2,0.4-0.3,0.4-0.8c0-0.4-0.1-0.7-0.3-1c-0.1-0.1-0.1-0.2-0.1-0.3L28.3,9c0.1-0.5,0.1-1-0.1-1.3
	c-0.3-0.5-0.7-0.8-1.2-0.8l-0.3,0L26.9,7c0.5,0.6,0.8,1.3,0.7,1.9c-0.1,0.3-0.1,0.4-0.4,0.5L27,9.5l0,0.2c0,0.4,0,0.7-0.3,1.2
	c-0.1,0.3-0.2,0.5-0.2,0.5c0,0.1,0.4,0.3,0.6,0.3l0.3,0.1l-0.2,0.1C27.1,12,27,12.1,27,12.4c0,0.3,0,0.5,0.3,0.8
	c0.1,0.2,0.2,0.3,0.2,0.4c0,0.1,0,0.2-0.1,0.2c-0.1,0-0.3,0.1-0.4,0.1c-0.5,0-0.5,0-0.7,0.3C26,14.4,26,14.4,26,14.6
	c0,0.3,0.1,0.9,0.2,0.9c0.1,0.1,0.6,0.3,0.8,0.4C27.1,16,27.3,15.9,27.5,15.9L27.5,15.9z M20.3,15.5c0.3-0.3,0.6-0.5,0.7-0.7
	c0.1-0.1,0.1-0.2,0.1-0.3c-0.1-0.2-0.6-0.6-0.8-0.7c-0.2-0.1-0.4-0.1-0.6-0.2l-0.3,0l-0.2-0.3c-0.4-0.5-0.7-0.9-1-1.7
	c-0.3-0.7-0.5-1.1-1-1.4C17,10,16.9,9.9,16.9,9.9c0,0,0.2,0.1,0.4,0.2c0.4,0.2,0.4,0.2,0.6,0.2c0.6-0.1,1.2-0.8,1.4-1.8
	c0.1-0.3,0.2-0.6,0.3-0.7c0,0,0.2,0.2,0.5,0.4c0.7,0.5,0.9,0.6,1.3,0.6c0.3,0,0.4,0,0.9-0.1c1-0.3,2.1-0.3,2.8-0.3
	c0.4,0.1,0.9,0.2,1.3,0.4c0.4,0.2,0.5,0.2,0.6,0.1c0.1-0.1,0.1-0.1,0.1-0.5c0-0.5-0.2-1.1-0.5-1.4c-0.1-0.2-0.6-0.5-1-0.7
	c-0.1-0.1-0.3-0.2-0.4-0.2c-0.2-0.1-0.4-0.1-1,0.1c-0.7,0.2-0.9,0.2-1.7,0c-0.7-0.2-0.7-0.2-1.4-0.1c-0.3,0.1-1.2,0-1.5-0.1
	c-0.1,0-0.3-0.1-0.4-0.1c-0.3-0.1-0.7-0.1-1.1,0c-0.8,0.1-1.4,0.6-1.6,1.2c-0.1,0.3-0.1,0.4,0.1,0.5c0.2,0.2,0.6,0.6,0.6,0.7
	c0,0-0.1-0.1-0.2-0.2c-0.2-0.2-0.4-0.3-0.7-0.3c-0.3,0-0.6,0.2-0.7,0.5c-0.1,0.2-0.1,0.4-0.2,0.6c-0.1,0.5-0.3,0.8-0.6,1.2
	c-0.2,0.3-0.3,0.5-0.2,0.9c0.2,1,0.6,1.3,2.2,2.2c0.8,0.5,1.3,0.7,1.6,1c0.2,0.2,0.2,0.2,0.2,0.3c0,0.3,0.2,0.7,0.5,0.9
	c0.1,0.1,0.2,0.1,0.2,0.2c0,0.1,0.3,0.2,0.5,0.2C19.9,15.7,20,15.6,20.3,15.5L20.3,15.5z M26.7,13.7c0.6,0,0.6,0,0.3-0.4
	c-0.3-0.4-0.4-0.7-0.3-1.1l0.1-0.1L26.5,12c-0.1,0-0.1-0.1-0.2-0.1c0,0.1-0.1,0.3-0.1,0.4c-0.1,0.3-0.2,1.1-0.2,1.5c0,0,0.1,0,0.1,0
	C26.3,13.7,26.3,13.7,26.7,13.7L26.7,13.7z M24.6,13.7c0.4,0,0.7,0,0.8-0.1l0.2,0l0-0.6c0-0.9,0.2-1.4,0.5-2.2
	c0.3-0.6,0.4-1.1,0.3-1.4c0-0.2,0-0.2-0.3-0.3c-0.4-0.2-0.8-0.3-1.2-0.3c-0.4-0.1-1.6,0-2.1,0.1c-0.2,0-0.5,0.1-0.8,0.2
	c-0.6,0.1-0.9,0.1-1.3-0.1c-0.4-0.2-0.7-0.4-1-0.6c-0.2-0.2-0.2-0.2-0.3-0.1c0,0-0.1,0.2-0.1,0.5c0,0.5-0.1,0.7-0.3,1
	c0,0.1-0.1,0.1-0.1,0.2c0,0,0.2,0.2,0.3,0.4c0.7,0.7,1,0.9,1.5,0.8c0.2,0,0.3,0,0.3,0c0,0-0.3,0.3-0.5,0.4c-0.1,0-0.1,0.1-0.1,0.2
	l0.1,0.5c0,0.3,0.1,0.5,0.1,0.5c0.1,0.1,0.8,0.4,1.2,0.6c0.5,0.2,0.8,0.3,1.2,0.3C23.9,13.7,23.9,13.7,24.6,13.7L24.6,13.7z
	 M20.3,13.1c0,0,0-0.3-0.1-0.7c-0.1-0.5-0.1-0.6-0.2-0.7c0,0-0.2-0.2-0.4-0.3c-0.3-0.2-0.5-0.4-0.7-0.6l-0.4-0.4l-0.2,0.1l-0.2,0.1
	c0,0.1,0,0.2,0.1,0.2c0.1,0.1,0.2,0.4,0.3,0.7c0.2,0.7,0.4,1,0.8,1.5l0.2,0.2l0.3,0c0.2,0,0.3,0.1,0.4,0.1c0.1,0,0.1,0,0.1-0.2
	C20.3,13.3,20.3,13.2,20.3,13.1L20.3,13.1z M26.9,6.6c0.3,0,0.3-0.1,0.2-0.2c-0.1-0.1-0.2-0.1-0.4,0c-0.1,0-0.1,0-0.3-0.1
	c-0.1-0.2-0.2-0.2-0.3-0.1c-0.2,0-0.2,0-0.2-0.1c-0.1-0.1-0.1-0.2-0.2-0.3c-0.1-0.1-0.3-0.2-0.4-0.3c-0.3-0.1-0.5-0.1-0.8,0.1
	C23.6,6,23.6,6,22.8,5.8c-0.8-0.2-1.4-0.4-1.6-0.5C21,5.2,20.7,5.1,20.4,5c-0.2,0-0.3,0-0.6,0.2l-0.1,0.1l0.1,0.2
	c0.1,0.2,0.1,0.3-0.1,0.1c-0.2-0.2-0.5-0.3-0.6-0.3c-0.1,0-0.5,0.2-0.5,0.2c0,0,0.1,0,0.2,0.1c0.2,0,0.4,0.1,0.5,0.1
	c0.4,0.2,0.6,0.2,0.9,0.2c0.4,0,1,0,1.1-0.1c0,0,0.2,0,0.4,0c0.3,0,0.4,0.1,1.2,0.3c0.4,0.1,0.7,0.1,1.3,0c0.2-0.1,0.5-0.1,0.7-0.2
	c0.2,0,0.3,0,0.6,0.1c0.5,0.2,0.8,0.4,1,0.5C26.5,6.7,26.6,6.7,26.9,6.6L26.9,6.6z M24,5.7l0.3-0.2l0-0.3c0-0.2,0-0.4,0-0.7l0-0.3
	l-0.3,0.2c-0.2,0.1-0.4,0.3-0.4,0.3c-0.2,0-1.4,0-1.5-0.1c-0.1-0.1-0.3-0.2-0.4-0.3L21.3,4l0,0.2c0,0.1,0,0.3,0,0.4
	c0,0.2,0,0.2,0.2,0.4c0.1,0.1,0.2,0.3,0.2,0.3c0,0.1,1.5,0.6,1.8,0.6C23.6,5.9,23.7,5.8,24,5.7z M23.4,4.5c0.4-0.1,0.6-0.3,0.7-1
	c0.1-0.7,0.2-1.9,0.2-2.4c-0.1-0.4-0.6-0.6-1.5-0.6c-0.6,0-0.8,0.1-1,0.3c-0.1,0.1-0.1,0.1-0.2,0.6c-0.1,0.9,0.1,2.3,0.3,2.8
	c0.1,0.2,0.2,0.3,0.5,0.4C22.6,4.6,23.1,4.6,23.4,4.5L23.4,4.5z"/>
</svg>
