<?xml version="1.0" encoding="utf-8"?>
<!-- Generator: Adobe Illustrator 24.0.1, SVG Export Plug-In . SVG Version: 6.00 Build 0)  -->
<svg version="1.1" id="Layer_1" xmlns="http://www.w3.org/2000/svg" xmlns:xlink="http://www.w3.org/1999/xlink" x="0px" y="0px"
	 viewBox="0 0 32 32" style="enable-background:new 0 0 32 32;" xml:space="preserve">
<style type="text/css">
	.st0{fill:#FFFFFF;}
</style>
<title>adobe-photoshop</title>
<path class="st0" d="M0,0.4v31.2h32V0.4L0,0.4z M1.3,1.7h29.3v28.5H1.3L1.3,1.7z M7.7,7.7c0-0.1,0.2-0.2,0.3-0.2
	c0.9,0,2.1-0.1,3.4-0.1c3.7,0,5.1,2,5.1,4.6c0,3.4-2.5,4.8-5.5,4.8c-0.5,0-0.7,0-1,0V22c0,0.1,0,0.2-0.2,0.2H7.9
	c-0.1,0-0.2,0-0.2-0.2V7.7z M10.1,14.8c0.3,0,0.6,0,1.1,0c1.6,0,3-0.6,3-2.7c0-1.7-1.1-2.6-2.8-2.6c-0.5,0-1,0-1.3,0V14.8z
	 M21.6,13.2c-1.1,0-1.4,0.5-1.4,1c0,0.5,0.2,0.8,1.7,1.5c2.1,1,2.8,2,2.8,3.4c0,2.1-1.6,3.3-3.8,3.3c-1.2,0-2.2-0.2-2.7-0.6
	c-0.1,0-0.1-0.1-0.1-0.2v-2c0-0.1,0.1-0.2,0.2-0.1c0.8,0.6,1.8,0.8,2.7,0.8c1.1,0,1.5-0.4,1.5-1c0-0.5-0.3-0.9-1.6-1.6
	c-1.9-0.9-2.7-1.8-2.7-3.4c0-1.7,1.3-3.1,3.7-3.1c1.1,0,2,0.2,2.4,0.4c0.1,0.1,0.1,0.2,0.1,0.3v1.8c0,0.1-0.1,0.2-0.2,0.1
	C23.3,13.4,22.4,13.2,21.6,13.2L21.6,13.2z"/>
</svg>
