<?xml version="1.0" encoding="utf-8"?>
<!-- Generator: Adobe Illustrator 24.0.1, SVG Export Plug-In . SVG Version: 6.00 Build 0)  -->
<svg version="1.1" id="Layer_1" xmlns="http://www.w3.org/2000/svg" xmlns:xlink="http://www.w3.org/1999/xlink" x="0px" y="0px"
	 viewBox="0 0 32 32" style="enable-background:new 0 0 32 32;" xml:space="preserve">
<style type="text/css">
	.st0{fill:#FFFFFF;}
</style>
<title>adobe-illustrator</title>
<path class="st0" d="M0,0.4v31.2h32V0.4L0,0.4z M1.3,1.7h29.3v28.5H1.3L1.3,1.7z M11.1,18.1l-1.1,4c0,0.1-0.1,0.1-0.2,0.1h-2
	c-0.1,0-0.2,0-0.1-0.2l3.8-13.3c0.1-0.2,0.1-0.5,0.1-1.1c0-0.1,0-0.1,0.1-0.1h2.8c0.1,0,0.1,0,0.2,0.1L19,22c0,0.1,0,0.2-0.1,0.2
	h-2.2c-0.1,0-0.2,0-0.2-0.1l-1.1-4L11.1,18.1L11.1,18.1z M14.8,15.9c-0.4-1.5-1.3-4.7-1.6-6.3h0c-0.3,1.6-1,4.2-1.5,6.3H14.8z
	 M20.8,8.5c0-0.9,0.6-1.4,1.4-1.4c0.8,0,1.4,0.6,1.4,1.4c0,0.9-0.6,1.4-1.4,1.4C21.4,9.9,20.8,9.4,20.8,8.5L20.8,8.5z M21,11.5
	c0-0.1,0-0.1,0.2-0.1h2.1c0.1,0,0.2,0,0.2,0.2v10.5c0,0.1,0,0.2-0.2,0.2h-2.1C21,22.2,21,22.1,21,22L21,11.5L21,11.5z"/>
</svg>
