<?xml version="1.0" encoding="utf-8"?>
<!-- Generator: Adobe Illustrator 24.0.1, SVG Export Plug-In . SVG Version: 6.00 Build 0)  -->
<svg version="1.1" id="Layer_1" xmlns="http://www.w3.org/2000/svg" xmlns:xlink="http://www.w3.org/1999/xlink" x="0px" y="0px"
	 viewBox="0 0 32 32" style="enable-background:new 0 0 32 32;" xml:space="preserve">
<style type="text/css">
	.st0{fill:#FFFFFF;}
</style>
<title>jquery</title>
<path class="st0" d="M2,7.8c-2.8,4.1-2.5,9.4-0.3,13.7c0.1,0.1,0.1,0.2,0.2,0.3C1.9,21.9,2,21.9,2,22c0,0,0,0.1,0.1,0.1
	c0,0.1,0.1,0.1,0.1,0.2l0.2,0.4c0,0.1,0.1,0.1,0.1,0.2c0.1,0.1,0.2,0.3,0.2,0.4c0,0.1,0.1,0.1,0.1,0.2C3,23.6,3.1,23.8,3.2,24
	c0.1,0.1,0.2,0.3,0.3,0.4c0,0,0.1,0.1,0.1,0.2L4,24.9C4,25,4,25,4.1,25.1c0.1,0.2,0.3,0.3,0.4,0.5c0,0,0,0,0,0
	c0.2,0.2,0.4,0.4,0.6,0.6c0.1,0.1,0.2,0.2,0.3,0.3l0.1,0.1C5.7,26.7,5.8,26.8,6,27c0,0,0,0,0,0l0.1,0.1c0.1,0.1,0.3,0.2,0.4,0.3
	l0.2,0.1c0.1,0.1,0.2,0.2,0.3,0.3l0.2,0.1c0.1,0.1,0.3,0.2,0.4,0.3c0,0,0.1,0.1,0.1,0.1l0,0l0.4,0.3l0.2,0.1
	c0.2,0.1,0.4,0.2,0.6,0.4c0.1,0,0.1,0.1,0.2,0.1c0.1,0.1,0.3,0.2,0.4,0.2c0.1,0,0.2,0.1,0.2,0.1c0.1,0.1,0.2,0.1,0.3,0.2
	c0,0,0.1,0,0.1,0c0,0,0.1,0,0.1,0.1c0.2,0.1,0.3,0.2,0.5,0.2c0,0,0.1,0,0.1,0c0.2,0.1,0.4,0.2,0.6,0.2c0,0,0.1,0,0.1,0.1
	c0.2,0.1,0.4,0.1,0.6,0.2l0.1,0c0.2,0.1,0.4,0.1,0.6,0.2c0,0,0.1,0,0.1,0c0.2,0.1,0.4,0.1,0.6,0.2c13.7,2.5,17.7-8.2,17.7-8.2
	c-3.3,4.3-9.3,5.5-14.9,4.2c-0.2,0-0.4-0.1-0.6-0.2c-0.3-0.1-0.5-0.2-0.8-0.2l-0.1,0c-0.2-0.1-0.4-0.1-0.5-0.2c0,0-0.1,0-0.1-0.1
	c-0.2-0.1-0.4-0.2-0.6-0.2c0,0-0.1,0-0.1-0.1c-0.2-0.1-0.3-0.1-0.5-0.2c0,0-0.1,0-0.1-0.1c-0.1-0.1-0.3-0.1-0.4-0.2
	c-0.1,0-0.2-0.1-0.2-0.1c-0.2-0.1-0.3-0.2-0.5-0.3c0,0-0.1-0.1-0.2-0.1c-0.2-0.1-0.4-0.2-0.6-0.4c-0.1,0-0.1-0.1-0.2-0.1
	c-0.1-0.1-0.3-0.2-0.4-0.3c0,0-0.1-0.1-0.1-0.1c-0.1-0.1-0.3-0.2-0.4-0.3c-0.1,0-0.1-0.1-0.2-0.1c-0.1-0.1-0.2-0.2-0.3-0.3l-0.2-0.1
	C9.1,23.3,9,23.2,8.8,23c0,0,0,0-0.1,0l-0.5-0.4l-0.1-0.1c-0.1-0.1-0.2-0.2-0.3-0.3L7.7,22c-0.1-0.1-0.3-0.3-0.4-0.4l0,0
	c-0.1-0.2-0.3-0.3-0.4-0.5c0,0-0.1-0.1-0.1-0.1l-0.3-0.4C6.3,20.4,6.1,20.2,6,20C2.9,15.7,1.8,9.9,4.2,5L2,7.8z M10.8,4.4
	c-2.1,2.9-1.9,6.9-0.3,10c0.3,0.5,0.6,1,0.9,1.5c0.3,0.4,0.6,1,1.1,1.3c0.1,0.2,0.3,0.3,0.5,0.5l0.1,0.1c0.2,0.1,0.3,0.3,0.5,0.4
	l0,0c0.2,0.2,0.4,0.3,0.6,0.5c0,0,0.1,0.1,0.1,0.1c0.2,0.1,0.4,0.3,0.6,0.4l0,0c0.1,0.1,0.2,0.1,0.3,0.2c0,0,0.1,0.1,0.1,0.1
	c0.1,0.1,0.3,0.2,0.4,0.3c0,0,0,0,0.1,0c0.1,0.1,0.3,0.1,0.4,0.2c0,0,0.1,0,0.1,0.1c0.1,0,0.2,0.1,0.3,0.1l0,0
	c0.2,0.1,0.4,0.2,0.5,0.3c0,0,0.1,0,0.1,0.1c0.1,0.1,0.3,0.1,0.4,0.2c0.1,0,0.1,0,0.2,0.1c0.1,0.1,0.3,0.1,0.4,0.1l0.2,0.1
	c0.2,0.1,0.4,0.1,0.6,0.2c10.6,1.8,13-6.4,13-6.4c-2.2,3.2-6.5,4.7-11,3.5c-0.2-0.1-0.4-0.1-0.6-0.2c-0.1,0-0.1,0-0.2-0.1
	c-0.1-0.1-0.3-0.1-0.4-0.1l-0.2-0.1c-0.2-0.1-0.3-0.1-0.4-0.2c0,0-0.1,0-0.1-0.1c-0.2-0.1-0.4-0.2-0.6-0.3l-0.3-0.1L18,17.1
	c-0.1-0.1-0.2-0.1-0.4-0.2c0,0-0.1,0-0.1,0c-0.1-0.1-0.3-0.2-0.4-0.3c0,0-0.1-0.1-0.1-0.1l-0.3-0.2c-0.2-0.1-0.4-0.3-0.6-0.4
	c0,0-0.1-0.1-0.1-0.1c-2-1.6-3.6-3.7-4.3-6.1C11,7.2,11.1,4.3,12.5,2L10.8,4.4z M18.2,1.8c-1.2,1.8-1.3,4-0.5,5.9
	c0.9,2.1,2.7,3.7,4.8,4.5c0.1,0,0.2,0.1,0.3,0.1l0.1,0c0.1,0,0.3,0.1,0.4,0.1c5.8,1.1,7.4-3,7.8-3.6c-1.4,2-3.7,2.5-6.6,1.8
	c-0.2-0.1-0.5-0.1-0.7-0.2c-0.3-0.1-0.6-0.2-0.8-0.3c-0.5-0.3-1-0.5-1.4-0.9c-2.6-1.9-4.1-5.6-2.5-8.7L18.2,1.8z"/>
</svg>
